<?xml version="1.0" encoding="UTF-8" standalone="no"?>

<svg
  width="2261.9407"
  height="2876.5688"
  viewBox="0 0 598.4718 761.09217"
  version="1.1"
  id="svg1"
  xml:space="preserve"
  xmlns="http://www.w3.org/2000/svg"
  xmlns:svg="http://www.w3.org/2000/svg"><g
     id="layer1"
     transform="translate(-191.55971,-145.82944)"><path
       style="display:inline;fill:none;fill-opacity:1;stroke:#ffffff;stroke-width:20;stroke-linecap:round;stroke-linejoin:miter;stroke-dasharray:none;stroke-opacity:1;paint-order:stroke fill markers"
       d="m 211.92915,252.41573 c 95.37564,-1.41779 187.84496,-39.54892 278.98321,-94.49412 93.15174,71.75714 189.58221,89.35275 286.95417,91.39595 C 800.1033,691.08151 647.47278,796.95785 490.91236,895.28559 273.48911,772.65191 165.94658,569.07833 211.92915,252.41573 Z"
       id="path1" /><path
  style="display:inline;fill:none;fill-opacity:1;stroke:#ffffff;stroke-width:19.9982;stroke-linecap:round;stroke-linejoin:miter;stroke-dasharray:none;stroke-opacity:1;paint-order:stroke fill markers"
  d="m 256.26018,295.94294 c 80.21097,-1.19235 157.9777,-33.26065 234.62503,-79.46959 78.34065,60.34779 159.43872,75.14572 241.32857,76.86404 C 750.91495,664.8611 622.55259,753.90314 490.88521,836.59681 308.03214,733.46184 217.58882,562.25636 256.26018,295.94294 Z"
  id="path1-1" /></g><g
  id="layer4"
  transform="translate(-191.55971,-145.82944)"><path
       style="display:none;fill:#ffffff;fill-opacity:1;stroke:none;stroke-width:5.99401;stroke-linecap:round;stroke-linejoin:miter;stroke-dasharray:none;stroke-opacity:1;paint-order:fill markers stroke"
       d="m 364.64358,545.15533 42.47295,7.93905 58.75426,-65.89407 -65.34801,221.16679 c 76.39271,-9.15063 154.9732,-36.85197 195.83994,-52.33062 l 5.88693,-69.36118 c 0,0 32.26038,63.12026 32.51024,55.18512 0.67203,-21.34129 -24.48099,-124.49173 -24.48099,-124.49173 l 69.34545,56.31609 -94.82923,-148.40906 67.8112,8.11397 -146.38619,-66.8629 117.73226,-19.73729 -177.90231,-2.49205 -34.68621,32.55009 2.509,-32.60058 -47.81352,94.52516 -59.71297,22.81196 2.37447,50.22726 65.8331,-20.6415 -48.84391,44.45866 -23.74314,23.92681 25.1589,-15.19387 65.12521,-35.72572 z"
       id="path19-9" /><path
  style="fill:#ffffff;fill-opacity:1;stroke:none;stroke-width:6.146;stroke-linecap:round;stroke-linejoin:miter;stroke-dasharray:none;stroke-opacity:1;paint-order:fill markers stroke"
  d="m 361.64202,545.65964 43.48353,8.15148 60.1522,-67.65722 -66.90284,227.08466 c 78.21034,-9.39557 158.66051,-37.83801 200.4996,-53.73087 l 6.02699,-71.21712 c 0,0 33.02795,64.80916 33.28377,56.66172 C 638.87331,623.04 613.12179,517.12951 613.12179,517.12951 l 70.99539,57.82295 -97.0855,-152.38008 69.42467,8.33106 -149.86921,-68.65197 120.53353,-20.2654 -182.13523,-2.55873 -35.51151,33.42104 2.56871,-33.47288 -48.95117,97.05439 -61.13374,23.42237 2.43098,51.5712 67.39948,-21.19381 -50.00606,45.64824 -24.30807,24.56703 25.75751,-15.6004 66.67474,-36.68165 z"
  id="path19-0" /></g></svg>