<svg xmlns="http://www.w3.org/2000/svg" viewBox="140.706 174.935 177.271 36.957" width="177.271" height="36.957" preserveAspectRatio="none"><path d="M183.039 193.371v-9.26h1.323 1.323v3.969 3.969h3.969 3.969v-3.969-3.969h1.323 1.323v9.26 9.26h-1.323-1.323v-3.969-3.969h-3.969-3.969v3.969 3.969h-1.323-1.323zm18.521 7.938v-1.323h-1.323-1.323v-1.323-1.323h1.323 1.323v-1.323-1.323h3.969 3.969v-1.323-1.323h-3.969-3.969v-1.323-1.323h3.969 3.969v1.323 1.323h1.323 1.323v5.292 5.292h-5.292-5.292zm7.937-2.646v-1.323h-3.969-3.969v1.323 1.323h3.969 3.969zm7.938 2.646v-1.323h-1.323-1.323v-3.969-3.969h1.323 1.323v-1.323-1.323h3.969 3.969v1.323 1.323h1.323 1.323v1.323 1.323h-1.323-1.323v-1.323-1.323h-3.969-3.969v3.969 3.969h3.969 3.969v-1.323-1.323h1.323 1.323v1.323 1.323h-1.323-1.323v1.323 1.323h-3.969-3.969zm13.229-7.937v-9.26h1.323 1.323v5.292 5.292h1.323 1.323v-1.323-1.323h2.646 2.646v-1.323-1.323h1.323 1.323v1.323 1.323h-1.323-1.323v1.323 1.323h-2.646-2.646v1.323 1.323h2.646 2.646v1.323 1.323h1.323 1.323v1.323 1.323h-1.323-1.323v-1.323-1.323h-2.646-2.646v-1.323-1.323h-1.323-1.323v2.646 2.646h-1.323-1.323zm23.813 6.615v-2.646h-5.292-5.292v-1.323-1.323h1.323 1.323v-1.323-1.323h1.323 1.323v-1.323-1.323h1.323 1.323v-1.323-1.323h1.323 1.323v-1.323-1.323h1.323 1.323v5.292 5.292h1.323 1.323v1.323 1.323h-1.323-1.323v2.646 2.646H255.8h-1.323zm0-7.937v-2.646h-1.323-1.323v1.323 1.323h-1.323-1.323v1.323 1.323h2.646 2.646zm7.938 1.323v-9.26h1.323 1.323v3.969 3.969h2.646 2.646v-1.323-1.323h1.323 1.323v-2.646-2.646h1.323 1.323v2.646 2.646h-1.323-1.323v1.323 1.323h-1.323-1.323v1.323 1.323h1.323 1.323v1.323 1.323h1.323 1.323v2.646 2.646h-1.323-1.323v-2.646-2.646h-1.323-1.323v-1.323-1.323h-2.646-2.646v3.969 3.969h-1.323-1.323zm15.875 2.646v-6.615h1.323 1.323v1.323 1.323h1.323 1.323v-1.323-1.323h2.646 2.646v1.323 1.323h-2.646-2.646v1.323 1.323h-1.323-1.323v3.969 3.969h-1.323-1.323zm13.229 5.292v-1.323h-1.323-1.323v-1.323-1.323h1.323 1.323v-1.323-1.323h3.969 3.969v-1.323-1.323h-3.969-3.969v-1.323-1.323h3.969 3.969v1.323 1.323h1.323 1.323v5.292 5.292h-5.292-5.292zm7.938-2.646v-1.323h-3.969-3.969v1.323 1.323h3.969 3.969zm5.292-5.292v-9.26h1.323 1.323v5.292 5.292h1.323 1.323v-1.323-1.323h2.646 2.646v-1.323-1.323h1.323 1.323v1.323 1.323h-1.323-1.323v1.323 1.323h-2.646-2.646v1.323 1.323h2.646 2.646v1.323 1.323h1.323 1.323v1.323 1.323h-1.323-1.323v-1.323-1.323h-2.646-2.646v-1.323-1.323h-1.323-1.323v2.646 2.646h-1.323-1.323z" fill="#fff"/><g transform="matrix(.048632 0 0 .048558 131.390021 167.853675)" fill="#fff"><path d="M491.602 145.83l-5.852 3.527c-90.329 54.457-181.162 91.679-273.969 93.059l-8.523.127-1.225 8.436C155.644 570.438 265.681 779.729 486 903.996l5.188 2.926 5.043-3.168c78.41-49.245 157.626-101.471 213.84-197.617s88.961-235.253 77.783-457.322l-.467-9.299-9.311-.195C681.77 237.299 588.15 220.203 497.016 150zm-1.334 24.012c90.465 67.591 184.499 86.096 277.965 89.064 9.695 214.233-22.504 346.618-75.428 437.137-52.508 89.807-125.799 139.471-202.113 187.533-209.146-120.177-312.14-314.962-269.95-621.496 92.779-3.474 182.139-40.27 269.525-92.238zm1.306 34.539l-5.852 3.527c-75.838 45.721-151.969 76.881-229.611 78.035l-8.523.127-1.225 8.436c-39.078 269.111 53.861 446.033 239.609 550.801l5.188 2.926 5.043-3.168c65.963-41.428 132.89-85.535 180.367-166.738s75.041-198.543 65.631-385.492l-.469-9.299-9.309-.195c-80.824-1.696-159.112-15.995-235.436-74.789zm-1.336 24.012c75.654 56.203 154.336 71.89 232.344 74.533 7.931 179.113-19.088 289.725-63.277 365.305-43.775 74.871-104.788 116.417-168.639 156.656C316.087 724.22 230.18 561.784 265.072 305.607c77.601-3.224 152.257-33.968 225.166-77.215z"/><path d="M361.642 545.66l43.484 8.151 60.152-67.657-66.903 227.085c78.21-9.396 158.661-37.838 200.5-53.731l6.027-71.217s33.028 64.809 33.284 56.662c.688-21.912-25.063-127.823-25.063-127.823l70.995 57.823-97.086-152.38 69.425 8.331-149.869-68.652 120.534-20.265-182.135-2.559-35.512 33.421 2.569-33.473-48.951 97.054-61.134 23.422 2.431 51.571 67.399-21.194-50.006 45.648-24.308 24.567 25.758-15.6 66.675-36.682z"/><path d="M443.785 336.338l-30.641 28.836 1.963-25.562-5.809-1.619-48.416 95.992-62.1 23.793 2.725 57.773 57.943-18.219-39.799 36.328-24.363 24.623 3.777 4.791 25.703-15.568 54.045-29.734-22.609 29.996 4.871.912 45.191 8.473 52.182-58.693-64.34 218.387 4.633-.557c78.692-9.453 159.299-37.983 201.223-53.908l1.809-.687 5.305-62.686 11.672 22.141c4.159 7.619 8.32 14.978 11.533 20.035 1.607 2.529 2.903 4.433 4.154 5.771.626.669.867 1.533 3.008 1.76 1.07.113 2.717-.727 3.256-1.623s.538-1.513.555-2.043c.193-6.157-1.343-16.776-3.672-29.852s-5.489-28.395-8.67-43.025l-10.709-46.939 63.971 52.104 4.533-4.035-93.598-146.904 62.979 7.559 1.646-5.846-140.775-64.486 110.67-18.607-.467-6.102zm2.4 6.18l146.959 2.064-96.932 16.297 141.088 64.631-56.35-6.762 90.344 141.797-63.318-51.568 2.16 8.879 12.771 55.621c3.171 14.586 6.319 29.853 8.625 42.799 1.407 7.896 2.311 14.381 2.904 19.816-2.946-4.764-6.54-11.012-10.293-17.887l-16.506-31.311-4.891-9.598-6.77 79.992c-41.304 15.638-117.966 42.441-193.297 52.205l65.543-222.473-5.244-2.91-58.996 66.359-36.906-6.92 25.281-33.539-3.934-4.541-66.732 36.713-4.559 2.762 6.777-6.85 49.947-45.596-2.992-5.201-63.596 19.998-2.139-45.369 60.168-23.053 42.488-84.242-1.986 25.891z"/></g></svg>